<?xml version="1.0" encoding="UTF-8"?>
<svg id="Layer_1" data-name="Layer 1" xmlns="http://www.w3.org/2000/svg" viewBox="0 0 1629.8 883.16">
  <defs>
    <style>
      .cls-1 {
        fill: #099;
      }

      .cls-2 {
        fill: #fff;
      }

      .cls-3 {
        fill: #13e2dd;
      }

      .cls-4 {
        fill: #00c7d0;
      }

      .cls-5 {
        fill: #f7f7f7;
        stroke: #c1c1c1;
        stroke-miterlimit: 10;
        stroke-width: 2.72px;
      }
    </style>
  </defs>
  <polygon class="cls-1" points="572.18 137.69 572.18 209.21 354.3 383.24 245.36 383.24 572.18 137.69"/>
  <path class="cls-1" d="m1385.31,383.24h-108.94l-217.88-174.03s-1.96-66.36,0-71.52l326.82,245.55Z"/>
  <path class="cls-4" d="m1276.37,383.24H354.3l217.88-174.03v-71.52h486.31c-1.96,5.16,0,71.52,0,71.52l217.88,174.03Z"/>
  <path class="cls-5" d="m783.2,101.07v116.89c0,.96.78,1.73,1.73,1.73h59.93c.96,0,1.73-.78,1.73-1.73v-116.89c0-.96-.78-1.73-1.73-1.73h-59.93c-.96,0-1.73.78-1.73,1.73Zm55.72,113.42h-48.04c-.96,0-1.73-.78-1.73-1.73v-18.57c0-.96.78-1.73,1.73-1.73h48.04c.96,0,1.73.78,1.73,1.73v18.57c0,.96-.78,1.73-1.73,1.73Zm0-28.73h-48.04c-.96,0-1.73-.78-1.73-1.73v-18.57c0-.96.78-1.73,1.73-1.73h48.04c.96,0,1.73.78,1.73,1.73v18.57c0,.96-.78,1.73-1.73,1.73Zm0-28.73h-48.04c-.96,0-1.73-.78-1.73-1.73v-18.57c0-.96.78-1.73,1.73-1.73h48.04c.96,0,1.73.78,1.73,1.73v18.57c0,.96-.78,1.73-1.73,1.73Zm0-28.73h-48.04c-.96,0-1.73-.78-1.73-1.73v-18.57c0-.96.78-1.73,1.73-1.73h48.04c.96,0,1.73.78,1.73,1.73v18.57c0,.96-.78,1.73-1.73,1.73Z"/>
  <polygon class="cls-3" points="1276.37 383.24 354.3 383.24 572.18 209.21 1058.49 209.21 1276.37 383.24"/>
  <g>
    <path class="cls-2" d="m385.44,734.45c-1.24-4.26-1.63-8.59-1.18-13.02.46-4.42,1.72-8.46,3.79-12.09,2.08-3.64,4.86-6.83,8.36-9.55,3.5-2.72,7.58-4.71,12.2-5.94,4.62-1.23,9.2-1.56,13.7-.97,4.5.59,8.62,1.94,12.36,4.03,3.74,2.09,6.97,4.93,9.7,8.5,2.73,3.58,4.61,7.53,5.65,11.83,1.04,4.3,1.16,8.57.37,12.81-.79,4.24-2.3,8.13-4.53,11.68-2.23,3.56-5.09,6.65-8.59,9.3-3.5,2.65-7.45,4.56-11.87,5.74-3.25.87-6.36,1.14-9.32.8-2.96-.34-5.79-1.08-8.5-2.22,2,7.56,3,11.34,5,18.9.53,2.06.37,3.96-.48,5.71-.84,1.75-2.35,2.93-4.52,3.55-1.02.29-2.03.37-3.01.25-.98-.13-1.9-.42-2.74-.87-.85-.46-1.6-1.08-2.24-1.86-.64-.78-1.11-1.68-1.4-2.68-5.1-17.56-7.65-26.35-12.76-43.91Zm36.65,7.78c2.41-.64,4.57-1.69,6.49-3.16,1.92-1.47,3.49-3.18,4.73-5.13,1.24-1.95,2.08-4.1,2.53-6.43.44-2.33.37-4.67-.23-7.03-.58-2.31-1.65-4.46-3.19-6.41-1.54-1.96-3.33-3.45-5.36-4.48-2.03-1.03-4.25-1.66-6.67-1.9-2.41-.25-4.86-.04-7.32.62-2.47.66-4.67,1.72-6.57,3.18-1.91,1.46-3.47,3.17-4.66,5.12-1.19,1.95-1.94,4.16-2.23,6.63-.29,2.47-.12,4.85.53,7.15.64,2.3,1.7,4.33,3.16,6.08,1.46,1.76,3.19,3.17,5.19,4.24,2,1.07,4.16,1.75,6.5,2.04,2.33.29,4.71.11,7.12-.53Z"/>
    <path class="cls-2" d="m511.15,758.68c-5.96,1.23-11.78,1.31-17.49.25-5.7-1.06-10.95-3.07-15.73-6.03-4.79-2.96-8.92-6.71-12.37-11.27-3.45-4.56-5.89-9.75-7.28-15.58-1.4-5.87-1.57-11.64-.47-17.29,1.1-5.65,3.25-10.89,6.47-15.68,3.22-4.78,7.33-8.89,12.35-12.3,5.01-3.4,10.69-5.77,17.02-7.07,4.26-.88,8.46-1.19,12.57-.94,4.12.24,8.04.97,11.74,2.17,3.71,1.2,7.21,2.85,10.48,4.93,3.28,2.09,6.17,4.55,8.69,7.37,2.51,2.82,4.63,5.95,6.34,9.39,1.72,3.45,2.92,7.16,3.61,11.14,1.03,5.91.81,11.64-.59,17.2-1.41,5.56-3.76,10.64-7.02,15.26-3.27,4.62-7.31,8.53-12.12,11.76-4.82,3.23-10.22,5.46-16.21,6.69Zm-2.85-14.17c4.06-.84,7.69-2.33,10.93-4.5,3.23-2.17,5.92-4.77,8.07-7.84,2.15-3.06,3.68-6.44,4.6-10.14.91-3.7,1.01-7.55.28-11.52-.73-3.97-2.2-7.52-4.41-10.64-2.21-3.12-4.91-5.71-8.11-7.75-3.2-2.04-6.78-3.45-10.71-4.19-3.94-.75-8.03-.69-12.25.18-4.17.86-7.93,2.42-11.26,4.66-3.33,2.25-6.05,4.95-8.16,8.08-2.11,3.13-3.56,6.57-4.34,10.31-.78,3.74-.71,7.57.18,11.51.89,3.94,2.49,7.43,4.78,10.48,2.28,3.05,5.01,5.55,8.17,7.52,3.16,1.97,6.66,3.3,10.48,4.02,3.83.71,7.74.66,11.75-.17Z"/>
    <path class="cls-2" d="m603.28,742.82c-6.01.83-11.8.54-17.42-.9-5.61-1.44-10.7-3.78-15.27-7.05-4.57-3.27-8.44-7.28-11.58-12.06-3.14-4.78-5.23-10.11-6.23-16.02-1.01-5.95-.81-11.71.65-17.29,1.46-5.57,3.94-10.65,7.45-15.22,3.51-4.56,7.87-8.39,13.08-11.46,5.21-3.07,11.01-5.05,17.39-5.94,4.29-.6,8.49-.63,12.58-.11,4.08.51,7.94,1.5,11.55,2.93,3.61,1.44,6.99,3.31,10.12,5.61,3.13,2.3,5.85,4.95,8.17,7.92,2.32,2.97,4.22,6.24,5.71,9.79,1.49,3.55,2.44,7.34,2.87,11.35.64,5.96.06,11.67-1.7,17.12-1.77,5.46-4.43,10.38-7.97,14.77-3.55,4.39-7.83,8.04-12.83,10.94-5.01,2.91-10.52,4.78-16.57,5.61Zm-1.92-14.33c4.09-.57,7.8-1.82,11.16-3.77,3.35-1.95,6.2-4.37,8.54-7.29,2.34-2.92,4.08-6.19,5.23-9.82s1.5-7.46,1.02-11.47c-.47-4.01-1.7-7.65-3.7-10.91-2-3.26-4.52-6.02-7.57-8.26-3.05-2.25-6.52-3.88-10.39-4.89-3.87-1-7.95-1.21-12.2-.62-4.21.58-8.05,1.89-11.5,3.91-3.45,2.02-6.34,4.54-8.64,7.53-2.3,2.98-3.97,6.33-4.98,10-1.02,3.68-1.2,7.51-.56,11.5.64,3.99,2,7.58,4.08,10.77,2.07,3.19,4.62,5.86,7.65,8.04,3.02,2.17,6.41,3.73,10.17,4.7,3.76.96,7.66,1.16,11.7.6Z"/>
    <path class="cls-2" d="m648.98,657.15c-.1-.99.02-1.94.34-2.85.33-.9.81-1.72,1.44-2.44.63-.71,1.39-1.3,2.29-1.76.89-.46,1.87-.74,2.93-.84,1.07-.1,2.09-.01,3.08.27.98.28,1.85.71,2.6,1.29.76.59,1.37,1.3,1.84,2.12.47.83.75,1.74.84,2.73,2.31,25.69,3.47,38.54,5.79,64.23,13.37-1.18,20.06-1.69,33.44-2.56,1.01-.07,1.99.05,2.92.36.93.31,1.75.77,2.45,1.38.71.61,1.27,1.33,1.7,2.18.43.84.67,1.76.73,2.76.13,2.08-.47,3.83-1.79,5.27-1.32,1.44-3.01,2.22-5.06,2.35-16.3,1.09-24.44,1.75-40.72,3.3-.96.09-1.89-.02-2.78-.32-.89-.31-1.68-.76-2.35-1.34-.68-.59-1.25-1.28-1.7-2.09-.45-.8-.73-1.68-.83-2.63-2.87-28.57-4.3-42.85-7.17-71.42Z"/>
    <path class="cls-2" d="m750.76,713.61c-.38-.68-.65-1.35-.83-1.99-.18-.64-.28-1.27-.3-1.88-.04-1.04.17-1.99.6-2.85.44-.87,1.01-1.62,1.7-2.28.69-.65,1.47-1.15,2.33-1.51.87-.35,1.7-.54,2.5-.57,1.16-.03,2.3.31,3.41,1.01,1.11.71,2.27,1.74,3.46,3.1,1.98,2.69,4.44,4.76,7.38,6.22,2.94,1.46,6.35,2.16,10.25,2.11,1.9-.02,3.78-.3,5.64-.81,1.86-.52,3.52-1.26,4.98-2.22,1.46-.96,2.63-2.14,3.52-3.53.89-1.39,1.33-2.98,1.33-4.76,0-1.96-.47-3.54-1.39-4.75-.93-1.22-2.12-2.19-3.58-2.95-1.47-.75-3.11-1.35-4.93-1.79-1.83-.44-3.64-.85-5.44-1.21-4.42-.73-8.49-1.72-12.21-2.99-3.72-1.27-6.96-2.88-9.71-4.85-2.74-1.97-4.93-4.32-6.53-7.07-1.61-2.75-2.49-5.95-2.61-9.6-.12-3.69.59-7.1,2.15-10.24,1.56-3.14,3.7-5.85,6.42-8.14,2.71-2.29,5.9-4.09,9.55-5.41,3.64-1.31,7.47-2,11.47-2.05,2.84-.04,5.63.2,8.38.73,2.74.52,5.33,1.3,7.75,2.34,2.41,1.04,4.61,2.34,6.57,3.9,1.97,1.57,3.58,3.4,4.87,5.49.5.83.75,1.74.75,2.74,0,.91-.2,1.77-.57,2.57-.38.8-.87,1.51-1.49,2.11-.63.6-1.39,1.08-2.28,1.42-.89.34-1.84.52-2.85.52-1.61,0-3.22-.46-4.54-1.43-1.28-.94-2.49-1.93-3.6-2.69-1.11-.76-2.28-1.38-3.51-1.87-1.23-.49-2.57-.85-4.03-1.08-1.45-.22-3.15-.32-5.09-.3-2.08.03-4.03.31-5.85.84-1.81.53-3.39,1.28-4.73,2.24-1.34.96-2.38,2.1-3.11,3.42-.73,1.31-1.07,2.78-1.03,4.39.04,1.87.59,3.39,1.65,4.55,1.05,1.17,2.49,2.14,4.31,2.91,1.82.77,3.96,1.41,6.4,1.94,2.45.53,5.16,1.05,7.98,1.66,3.21.69,6.41,1.72,9.5,2.9,3.1,1.19,5.85,2.7,8.28,4.56,2.42,1.85,4.35,4.12,5.8,6.8,1.45,2.68,2.15,5.91,2.12,9.69-.03,3.73-.86,7.2-2.46,10.4-1.6,3.2-3.78,5.98-6.53,8.35-2.75,2.36-5.98,4.22-9.68,5.58-3.71,1.36-7.7,2.07-12,2.13-3.38.04-6.63-.34-9.77-1.14-3.13-.8-6.02-1.92-8.65-3.35-2.64-1.43-4.97-3.11-7-5.05-2.02-1.93-3.61-4.03-4.76-6.3Z"/>
    <path class="cls-2" d="m823.19,650.29c.02-1.04.24-2.02.67-2.92.43-.9,1-1.69,1.71-2.35.71-.66,1.55-1.19,2.54-1.58.98-.39,2.03-.58,3.15-.56,16.97.35,25.45.64,42.41,1.47,1.06.05,2.07.3,3,.73.94.44,1.73,1.03,2.39,1.75.66.73,1.18,1.56,1.54,2.49.37.94.52,1.92.47,2.96-.05,1-.31,1.94-.78,2.83-.46.89-1.06,1.65-1.79,2.29-.72.63-1.57,1.13-2.54,1.47-.96.34-1.97.49-3.03.44-13.61-.66-20.42-.91-34.05-1.27-.21,8.2-.32,12.31-.53,20.51,9.24.24,13.86.39,23.09.78,1.09.05,2.09.29,3.01.72.91.43,1.72,1.01,2.41,1.74.69.72,1.23,1.54,1.59,2.45.36.91.52,1.88.47,2.92-.05.99-.3,1.94-.74,2.83-.45.9-1.05,1.66-1.8,2.3-.75.64-1.6,1.14-2.53,1.49-.94.35-1.95.51-3.03.46-9.14-.38-13.71-.53-22.86-.77-.21,8.25-.32,12.38-.53,20.64,13.11.37,19.67.62,32.77,1.28,1.01.05,1.97.3,2.86.73.89.44,1.65,1.01,2.28,1.71.63.7,1.12,1.51,1.47,2.42.35.91.5,1.89.44,2.93-.06,1.08-.31,2.06-.75,2.93-.44.87-1.01,1.61-1.7,2.23s-1.5,1.09-2.42,1.41c-.92.32-1.88.46-2.89.41-16.26-.79-24.4-1.07-40.67-1.4-1.97-.22-3.59-1.02-4.86-2.4-1.27-1.39-1.9-3.08-1.87-5.08.44-28.39.65-42.59,1.09-70.99Z"/>
    <path class="cls-2" d="m891.13,678.9c.01-.17.02-.35.03-.52.01-.17.04-.37.1-.58-.03-.22-.04-.42-.03-.59.01-.18.02-.35.03-.52.26-4.2,1.3-8.23,3.12-12.07,1.83-3.84,4.24-7.06,7.24-9.64,3-2.59,6.5-4.54,10.48-5.85,3.98-1.32,8.25-1.79,12.8-1.41,4.5.37,8.67,1.54,12.5,3.5,3.83,1.96,7.09,4.47,9.76,7.53,2.68,3.05,4.65,6.64,5.94,10.74,1.29,4.11,1.7,8.25,1.27,12.44-.38,3.67-1.37,6.95-2.94,9.85-1.57,2.89-3.56,5.39-5.97,7.51-2.4,2.12-5.13,3.83-8.18,5.16-3.05,1.33-6.25,2.24-9.62,2.72,5.56,6.27,8.31,9.42,13.74,15.73.63.76,1.07,1.6,1.32,2.52.24.92.31,1.83.22,2.74-.1,1-.39,1.92-.87,2.76-.48.84-1.09,1.57-1.84,2.18-.74.6-1.58,1.06-2.52,1.39-.93.32-1.9.44-2.91.34-2.01-.19-3.78-1.14-5.3-2.85-9.62-11.13-14.53-16.65-24.54-27.61-.73,8.2-1.09,12.31-1.81,20.51-.15,2.12-.94,3.86-2.36,5.22-1.41,1.36-3.2,1.96-5.34,1.82-1.05-.07-2.03-.33-2.92-.78-.89-.45-1.66-1.03-2.3-1.75-.64-.72-1.13-1.55-1.46-2.51-.34-.95-.47-1.96-.41-2.99,1.11-18,1.66-26.99,2.77-44.99Zm30.81,15.09c2.15.18,4.24-.05,6.25-.71,2.01-.65,3.81-1.62,5.4-2.89,1.6-1.27,2.9-2.81,3.91-4.61,1.01-1.8,1.62-3.76,1.82-5.88.2-2.12-.02-4.22-.68-6.31-.66-2.09-1.67-3.85-3.04-5.28-1.37-1.43-3.01-2.61-4.92-3.51-1.91-.91-3.97-1.45-6.17-1.64-2.21-.18-4.32.04-6.33.66-2.01.63-3.78,1.57-5.3,2.83-1.52,1.26-2.77,2.87-3.74,4.85-.97,1.98-1.53,4-1.68,6.08-.15,2.08.11,4.08.79,6s1.67,3.62,2.96,5.09c1.3,1.47,2.87,2.68,4.72,3.63,1.85.95,3.86,1.51,6.02,1.69Z"/>
    <path class="cls-2" d="m961.93,661.05c-.31-.95-.42-1.9-.32-2.85.09-.86.37-1.69.83-2.5.46-.8,1.06-1.5,1.81-2.09.74-.6,1.61-1.05,2.6-1.35.99-.31,2.07-.4,3.23-.27,1.48.17,2.85.71,4.11,1.62,1.26.91,2.12,2.12,2.6,3.61,7.09,23.47,10.46,35.23,16.82,58.76,12.27-21.04,18.59-31.5,31.56-52.28.8-1.28,1.92-2.21,3.35-2.78,1.43-.57,2.89-.75,4.36-.52,1.11.17,2.1.54,2.98,1.1.88.55,1.59,1.2,2.14,1.95.54.74.92,1.56,1.16,2.46.23.89.28,1.79.13,2.69-.15.95-.51,1.83-1.06,2.67-16.81,26.39-24.94,39.7-40.61,66.5-.84,1.55-1.92,2.68-3.24,3.4-1.32.72-2.76.97-4.33.76-.39-.05-.67-.11-.84-.18-.18-.02-.27-.04-.45-.06-.33-.12-.5-.19-.83-.31-1.98-.75-3.35-2.32-4.11-4.74-8.15-30.29-12.53-45.41-21.9-75.59Z"/>
    <path class="cls-2" d="m1049.38,670.38c.17-.99.53-1.87,1.08-2.66.56-.79,1.24-1.43,2.03-1.94.79-.51,1.68-.86,2.67-1.07.98-.21,2-.22,3.06-.04,1.06.18,2.03.54,2.91,1.07.88.53,1.61,1.17,2.18,1.91.58.74.99,1.57,1.23,2.5.24.92.27,1.88.09,2.86-5.02,28.24-7.53,42.36-12.55,70.6-.18.98-.53,1.87-1.04,2.66-.52.79-1.17,1.44-1.92,1.94-.76.5-1.62.87-2.57,1.07-.96.21-1.93.23-2.93.05s-1.9-.52-2.7-1.03c-.81-.51-1.49-1.13-2.03-1.87-.55-.73-.94-1.56-1.19-2.48-.25-.92-.29-1.88-.12-2.86,4.73-28.29,7.1-42.44,11.83-70.73Z"/>
    <path class="cls-2" d="m1137.37,704.03c-2.36-3.49-5.23-6.32-8.59-8.47-3.36-2.15-7.04-3.66-11.02-4.52-4.08-.88-8.09-.97-12.01-.28-3.92.69-7.51,2.05-10.75,4.06-3.25,2.01-5.99,4.58-8.24,7.7-2.25,3.13-3.75,6.68-4.52,10.64-.75,3.84-.7,7.62.13,11.35.83,3.73,2.28,7.14,4.35,10.24,2.07,3.1,4.72,5.76,7.94,8.01,3.22,2.25,6.88,3.81,10.97,4.7,3.83.83,7.58,1,11.26.51,3.67-.48,7.35-1.84,11.04-4.06.85-.51,1.77-.82,2.74-.94.97-.11,1.91-.05,2.83.17,1.05.25,1.96.66,2.75,1.25.78.59,1.43,1.28,1.93,2.07.5.79.83,1.64.98,2.54.15.91.11,1.83-.11,2.75-.22.93-.62,1.78-1.17,2.56-.56.78-1.23,1.41-2.04,1.89-5.33,3.13-10.86,5.09-16.63,5.9-5.77.81-11.41.62-16.97-.58-3.92-.85-7.59-2.15-11.01-3.93-3.42-1.77-6.53-3.89-9.33-6.35-2.8-2.46-5.27-5.24-7.4-8.33-2.13-3.09-3.84-6.39-5.13-9.9-1.28-3.51-2.13-7.18-2.51-11.01-.39-3.82-.23-7.68.49-11.57,1.04-5.63,3.13-10.83,6.32-15.56,3.18-4.73,7.15-8.69,11.93-11.85,4.78-3.17,10.2-5.36,16.25-6.57,6.05-1.21,12.41-1.1,19.04.34,5.94,1.28,11.45,3.6,16.49,6.93,5.04,3.33,9.33,7.64,12.85,12.9,1.1,1.78,1.43,3.58.99,5.4-.22.93-.64,1.77-1.25,2.51-.6.75-1.33,1.35-2.18,1.82-.84.47-1.77.78-2.79.94-1.01.16-2.03.12-3.06-.12-.94-.22-1.82-.6-2.65-1.12-.83-.53-1.47-1.2-1.95-2.03Z"/>
    <path class="cls-2" d="m1165.18,694.91c.25-1.01.69-1.91,1.32-2.69.63-.78,1.37-1.41,2.21-1.9.84-.48,1.79-.8,2.85-.96,1.05-.16,2.13-.1,3.22.18,16.57,4.22,24.84,6.45,41.32,11.14,1.03.29,1.97.77,2.78,1.4.82.64,1.47,1.4,1.95,2.26.49.87.8,1.79.95,2.78.15,1,.08,1.99-.21,2.99-.28.96-.75,1.82-1.4,2.58-.66.76-1.42,1.37-2.27,1.82-.85.45-1.8.73-2.83.85-1.02.11-2.05.02-3.08-.27-13.23-3.77-19.86-5.58-33.16-9.04-2.07,7.94-3.1,11.91-5.17,19.85,9.01,2.35,13.52,3.56,22.5,6.05,1.06.29,1.99.76,2.79,1.39.8.63,1.46,1.37,1.98,2.24.51.86.86,1.78,1.01,2.75.15.97.09,1.95-.2,2.96-.27.96-.73,1.82-1.37,2.59-.64.77-1.41,1.38-2.29,1.83-.89.45-1.83.74-2.83.87-1,.13-2.03.05-3.08-.24-8.9-2.47-13.35-3.66-22.28-5.99-2.08,7.99-3.12,11.99-5.2,19.98,12.79,3.36,19.17,5.11,31.9,8.76.99.28,1.87.74,2.64,1.37.77.63,1.39,1.36,1.85,2.19s.76,1.73.89,2.7c.13.97.06,1.95-.23,2.95-.3,1.04-.77,1.94-1.4,2.68-.63.75-1.36,1.34-2.18,1.78s-1.72.72-2.7.82c-.97.1-1.95.02-2.93-.26-15.8-4.5-23.73-6.64-39.63-10.68-1.88-.66-3.29-1.81-4.23-3.45s-1.16-3.43-.68-5.37c6.86-27.56,10.29-41.34,17.16-68.89Z"/>
  </g>
  <g>
    <path class="cls-2" d="m313.62,522.99c19.43-3,29.16-4.43,48.67-7.14,8.22,6.65,12.32,9.88,20.53,16.19-.31,17.7-.46,26.56-.77,44.26-27.78,5.86-41.62,9.03-69.14,15.84-.46,44.57-.69,66.86-1.15,111.43-20.74,8.31-31.05,12.68-51.52,21.88-8.61-4.12-12.92-6.25-21.54-10.71v-220.09c0-52.34,39.65-88.83,89.62-88.83,30.14,0,55.75,11.87,80.25,33.43,19.03,16.74,28.59,32.72,28.18,52.41-.09,4.43-.14,6.65-.23,11.08-21.36,2.37-32.01,3.64-53.29,6.35-9.02-5.66-13.54-8.56-22.57-14.55.08-5.26.12-7.89.2-13.16.13-8.43-.63-10.4-11.68-9.47-21.69,1.83-35.18,14.54-35.38,33.88-.07,6.88-.11,10.32-.18,17.2Zm-60.05-30.13c.1-43.52,36.96-72.26,74.58-72.95,37.23-.68,73.25,21.88,72.58,57.85-.05,2.7-.08,4.05-.13,6.75,3.48-.33,5.21-.49,8.69-.81.05-2.67.08-4.01.13-6.68.75-38.45-35.61-64.89-81.18-64.5-45.97.4-82.44,33.76-82.49,81.28-.08,70.3-.15,140.6-.23,210.9,3.03-1.28,4.55-1.92,7.58-3.18.16-69.55.31-139.1.47-208.66Zm16.85-1.97c.15-32.28,24.34-55.32,57.55-56.54,33.22-1.23,56.65,17.03,56.16,44.88-.05,2.75-.07,4.13-.12,6.88,3.32-.33,4.97-.49,8.29-.81.05-2.73.07-4.09.12-6.81.58-31.79-30.73-52.45-64.37-51.53-33.63.92-66.14,27.29-66.27,64.94-.24,68.78-.47,137.55-.71,206.33,3.35-1.37,5.03-2.05,8.38-3.4.25-53.62.38-80.43.63-134.05,33.71-7.13,50.67-10.42,84.71-16.42.04-2.72.06-4.07.1-6.79-34.06,5.71-51.03,8.83-84.77,15.62.12-24.91.17-37.37.29-62.28Zm15.69-1.78c.16-23.8,16.42-38.92,41.69-40.33s40.5,10.53,40.16,31.93c-.05,2.81-.07,4.21-.11,7.02,3.15-.32,4.73-.48,7.89-.8.05-2.78.07-4.17.12-6.95.42-25.16-22.27-39.43-47.96-38.24-26.08,1.21-49.46,19.7-49.62,48.25-.12,21.5-.19,32.24-.31,53.74,30.7-5.74,46.11-8.4,77.05-13.31.04-2.99.07-4.48.11-7.47-27.82,4.14-41.68,6.37-69.32,11.15.12-18,.18-26.99.31-44.99Zm-.57,84.03c27.5-6.23,41.31-9.14,69.05-14.54.04-2.85.06-4.28.11-7.13-30.89,5.73-46.27,8.84-76.87,15.55-.29,49.9-.43,74.85-.72,124.75,3.06-1.21,4.59-1.81,7.65-3,.32-46.25.47-69.38.79-115.64Z"/>
    <path class="cls-2" d="m439.82,643.78c1.21-56.51,2.42-113.03,3.63-169.54.84-39.1,41.11-68.42,90.29-68.42,29.74,0,55.79,10.12,80.72,28.1,19.17,13.83,29.29,27.76,29.01,43.06-1.03,56.32-1.55,84.48-2.58,140.8-21.81,2.83-32.69,4.46-54.39,8.18-9.21-3.91-13.8-5.87-22.97-9.84.63-28.08.95-42.11,1.58-70.19-19.01,2.26-28.5,3.49-47.44,6.18-.82,35.18-1.23,52.77-2.04,87.94-21.53,4.88-32.26,7.55-53.63,13.32-8.88-3.76-13.32-5.67-22.17-9.59Zm176.02-179.76c.6-29.62-37.01-53.14-82.22-52.92-45.21.23-82.27,27.13-83.04,62.59-1.18,54.24-2.36,108.49-3.54,162.73,3.16-.82,4.74-1.22,7.9-2.02,1.19-53.97,2.38-107.93,3.57-161.9.65-29.43,38.1-56.02,75.39-56.38,38.87-.38,73.71,22.65,73.19,47.75-1.17,56.38-1.75,84.57-2.92,140.95,3.54-.51,5.31-.76,8.85-1.25,1.13-55.81,1.69-83.72,2.82-139.54Zm-17.11.21c.48-22.63-28.05-43.64-65.35-43.1-35.31.51-65.94,23.38-66.58,51.95-1.19,53.08-2.37,106.16-3.56,159.24,3.32-.82,4.99-1.23,8.31-2.03.94-41.77,1.42-62.65,2.36-104.42,46.14-5.93,69.32-8.39,115.79-12.3-.81,37.49-1.21,56.24-2.02,93.72,3.21-.5,4.82-.75,8.03-1.23,1.2-56.73,1.8-85.1,3-141.83Zm-124.67,55.74c.44-19.47.66-29.2,1.1-48.67.53-23.3,27.13-43.13,58.08-43.77,31.75-.65,57.98,16.41,57.51,38.11-.37,17.05-.55,25.58-.92,42.63-46.45,3.72-69.63,6.06-115.77,11.7Zm107.94-53.91c.42-19.19-19.91-33.71-48.88-32.96-28.18.72-49.17,17.74-49.65,38.79-.37,16.37-.56,24.56-.93,40.94,39.35-4.43,59.09-6.32,98.65-9.43.33-14.93.49-22.4.82-37.33Zm-1.19,54.12c-39.6,3.65-59.35,5.86-98.7,11.06-.89,38.83-1.33,58.24-2.21,97.07,3.17-.74,4.76-1.11,7.94-1.84.83-36.19,1.25-54.28,2.08-90.47,33.02-4.45,49.59-6.39,82.8-9.71-.74,33.49-1.12,50.24-1.86,83.73,3.21-.54,4.81-.81,8.02-1.33.78-35.4,1.16-53.11,1.94-88.51Zm-90.21-14.33c.33-14.27.49-21.4.82-35.67.41-17.69,16.55-30.45,41.55-31.23,24.61-.77,41.47,9.26,41.08,26.43-.29,13.2-.44,19.8-.73,33.01-33.16,2.55-49.71,4.04-82.72,7.46Zm28.32-8.15c18.92-1.69,28.39-2.46,47.34-3.88.25-11.23.38-16.85.63-28.08.16-7.29-1.4-8.58-12.53-8.07-21.46.98-34.79,11.84-35.13,26.21-.13,5.53-.19,8.29-.32,13.81Z"/>
    <path class="cls-2" d="m763.45,452.68c-.8,0-1.19.01-1.99.02-14.36.14-24.77,5.18-24.87,15.69-.53,56.21-.8,84.31-1.32,140.52-21.92,1.29-32.87,2.16-54.74,4.34-9.15-4.27-13.72-6.39-22.84-10.63.99-58.4,1.49-87.61,2.49-146.01.5-29.56,25.84-50.78,79.78-50.78,21.41,0,38.04,3.88,50.73,10.16,12.32-7.03,28.97-10.16,51.58-10.16,31.33,0,52.08,6.95,73.22,21.92,19.22,13.61,27.02,26.65,27.24,41.85.83,57.29,1.25,85.94,2.09,143.22-21.71-2.09-32.58-2.92-54.34-4.14-9.46-5.6-14.19-8.34-23.63-13.73-.36-56.9-.53-85.36-.88-142.26-.64,0-.96,0-1.59-.01-13.96-.12-25.11,4.67-25.08,15.07.17,55.62.25,83.44.41,139.05-21.62-.4-32.43-.38-54.05.09-9.25-4.83-13.87-7.21-23.08-11.92.36-56.91.54-85.36.9-142.27Zm144.69,139.93c3.24.21,4.86.31,8.1.54-.65-55.13-.97-82.7-1.62-137.84-.31-26.09-23.54-44.86-72.34-44.88-22.22-.01-40.47,4.58-51.61,11.61-11.5-6.99-28.14-11.59-50.75-11.56-48.81.06-72.12,19.27-72.56,45.94-.92,56.36-1.39,84.54-2.31,140.9,3.23-.33,4.84-.49,8.07-.8.88-56.12,1.33-84.19,2.21-140.31.37-23.3,21.67-40.48,64.55-40.6,21.83-.06,37.67,4.29,51.17,13.93,13.55-9.7,29.82-14.04,51.26-14.02,42.48.04,64.1,16.83,64.35,39.66.6,54.98.9,82.47,1.49,137.45Zm-121.63-2.68c3.25-.06,4.87-.09,8.11-.13.13-54.15.2-81.22.34-135.38.04-17.65,17.16-29.06,47.37-29,29.81.06,47,11.65,47.16,29.48.49,54.69.73,82.03,1.23,136.71,3.41.18,5.11.27,8.51.46-.54-54.82-.81-82.23-1.36-137.05-.2-20.32-19.41-34.62-55.56-34.68-27.02-.04-44.89,6.98-51.71,21.76-3.55-13.29-24.97-21.73-50.78-21.62-35.75.15-55.82,14.79-56.13,35.5-.83,55.89-1.25,83.84-2.09,139.73,3.56-.32,5.34-.48,8.89-.78.78-55.66,1.18-83.49,1.96-139.15.26-18.14,17.11-30,47.32-30.17,29.81-.17,47.26,11.19,47.2,28.85-.19,54.19-.28,81.29-.47,135.48Zm-16.63.41c3.24-.1,4.87-.14,8.11-.23.24-54.24.37-81.37.61-135.61.07-15.02-15.8-23.93-38.87-23.77-22.67.16-39.09,9.51-39.3,24.86-.74,55.47-1.11,83.2-1.85,138.66,3.24-.26,4.85-.38,8.09-.62.69-55.28,1.04-82.92,1.73-138.21.16-13.08,13.37-19.66,31.28-19.82,17.51-.15,31,6.09,30.93,18.95-.29,54.31-.45,81.47-.74,135.78Zm104.23.5c3.24.13,4.86.2,8.11.35-.44-54.56-.65-81.84-1.09-136.41-.12-15.1-15.71-24.23-38.77-24.29-22.68-.06-39.39,8.91-39.42,23.89-.08,54.13-.12,81.19-.2,135.31,3.41-.03,5.11-.04,8.52-.05.02-54.11.04-81.17.06-135.28,0-12.8,13.14-19.1,31.05-19.04,17.51.05,30.69,6.47,30.78,19.36.39,54.46.58,81.69.96,136.15Z"/>
    <path class="cls-2" d="m1036.59,424.6c1.44,66.99,2.87,133.97,4.31,200.96-21.71-3.68-32.6-5.29-54.41-8.08-9.47-6.49-14.2-9.66-23.66-15.86-1.04-64.18-2.08-128.35-3.12-192.53,22.21.04,33.32.06,55.53.12,8.53,6.06,12.8,9.13,21.35,15.39Zm-60.94-10.91c-3.33-.02-5-.02-8.33-.04,1.04,61.42,2.07,122.83,3.11,184.25,3.39.36,5.08.55,8.47.93-1.08-61.71-2.17-123.42-3.25-185.13Zm16.67.08c-3.49-.02-5.24-.03-8.73-.04,1.13,62.01,2.26,124.02,3.38,186.02,3.55.42,5.32.63,8.87,1.07-1.17-62.35-2.35-124.7-3.52-187.05Zm15.87.09c-3.17-.02-4.76-.03-7.94-.04,1.22,62.68,2.43,125.35,3.64,188.03,3.22.42,4.83.63,8.05,1.07-1.25-63.02-2.51-126.04-3.76-189.05Z"/>
    <path class="cls-2" d="m1214.65,625.05c.34,16.86.51,25.29.84,42.15-52.27-16.2-78.76-22.95-132.07-33.74-8.45-7.38-12.68-10.98-21.14-18.04-.96-.17-1.45-.25-2.41-.42-1.52-68.56-3.04-137.13-4.57-205.69,22.21.06,33.31.1,55.52.18,8.56,6.58,12.84,9.94,21.4,16.81,1.26,54.61,2.52,109.22,3.77,163.83,23.2,4.38,34.77,6.77,57.8,11.94,8.36,8.97,12.53,13.56,20.85,22.98Zm-27.29,6.51c-44.35-11.34-66.73-16.15-111.71-24.04-1.46-64.42-2.92-128.84-4.39-193.26-3.33-.02-5-.04-8.33-.06,1.48,65.76,2.95,131.52,4.43,197.28,48.39,8.44,72.46,13.67,120.12,26.18-.05-2.44-.08-3.66-.13-6.09Zm-.27-12.8c-37.89-9.13-56.97-13.11-95.3-19.88-1.41-61.5-2.83-123.01-4.25-184.51-3.33-.03-5-.04-8.33-.06,1.44,62.87,2.88,125.73,4.31,188.6,41.73,7.34,62.5,11.73,103.7,21.95-.05-2.44-.08-3.66-.13-6.09Zm-.27-12.49c-31.43-7.13-47.23-10.31-78.95-15.91-1.36-58.62-2.71-117.24-4.07-175.86-3.17-.03-4.76-.04-7.93-.07,1.39,60.03,2.78,120.07,4.16,180.1,34.94,6.17,52.34,9.74,86.92,17.82-.05-2.44-.08-3.66-.13-6.09Z"/>
    <path class="cls-2" d="m1281.4,526.69c23.16,3.58,33.96-7.05,33.78-24.23-.38-36.79-.58-55.19-.96-91.99,22.36.14,33.53.21,55.88.36,8.43,9,12.63,13.62,21,23.15,0,40.29,0,60.44,0,100.73,0,38.86-25.39,64.25-58.64,66.1.37,43.61.55,65.41.91,109.02-20.66-8.57-31.06-12.63-51.97-20.32-9.09-10.4-13.65-15.45-22.81-25.29-.6-35.95-.9-53.93-1.5-89.89-5.53-3.81-11.48-9.05-23.04-19.18-26.71-23.81-40.99-43.83-41.46-66.29-.67-31.62-1-47.42-1.67-79.04,22.2.1,33.31.16,55.51.27,8.38,7.66,12.56,11.59,20.91,19.66.52,33.56.78,50.34,1.3,83.91.14,9.1,2.54,11.46,12.74,13.04Zm-9.3,32.31c-35.34-11.6-63.51-41.1-64.1-70.22-.59-29.3-.89-43.96-1.48-73.26-3.33-.04-5-.06-8.33-.09.62,29.64.92,44.46,1.54,74.1.62,29.77,26.85,57.51,64.61,72.97.63,39.24.94,58.86,1.57,98.1,3.11,1.01,4.67,1.52,7.78,2.54-.63-41.66-.95-62.49-1.58-104.15Zm15.96-4.07c33.24,4.33,59.08-18.8,58.88-50.17-.22-34.95-.34-52.42-.56-87.37-3.33-.05-4.99-.08-8.32-.13.26,34.56.39,51.85.65,86.41.22,28.8-22.14,49.56-54.27,43.71-32.12-5.85-59.36-32.05-59.84-56.95-.57-29.89-.86-44.83-1.43-74.72-3.33-.04-5-.06-8.33-.1.6,30.22.89,45.33,1.49,75.56.49,24.98,30.2,55.21,63.89,62.26.65,44.97.97,67.46,1.62,112.43,3.11,1.04,4.66,1.57,7.75,2.63-.62-45.43-.92-68.14-1.54-113.56Zm42.08-137.79c-3.33-.05-4.99-.07-8.31-.12.33,34.56.5,51.83.82,86.39.2,21.33-12.91,34.04-41.15,29.44-25.11-4.09-40.34-19.9-40.71-40.74-.55-30.48-.82-45.72-1.37-76.19-3.33-.04-4.99-.06-8.32-.1.56,30.17.84,45.26,1.4,75.43.42,22.56,21.65,44.08,48.7,48.73,28.62,4.92,49.88-11.73,49.66-37.31-.29-34.21-.44-51.31-.73-85.51Zm-25.52,153c33.45-1.23,58.91-24.6,58.76-61.25-.15-36.5-.23-54.74-.38-91.24-3.33-.05-4.99-.08-8.32-.13.19,36.55.29,54.82.48,91.36.17,32.09-26.84,55.24-58.82,53.92.55,43.4.83,65.1,1.38,108.5,3.25,1.14,4.87,1.71,8.12,2.86-.49-41.61-.73-62.41-1.22-104.03Z"/>
  </g>
</svg>